<mxfile host="app.diagrams.net" modified="2022-09-20T19:48:00.605Z" agent="5.0 (Windows NT 10.0; Win64; x64) AppleWebKit/537.36 (KHTML, like Gecko) Chrome/105.0.0.0 Safari/537.36" etag="Cjf5UWx-EGG0PaHGep2X" version="20.3.3" type="github">
  <diagram id="958AJsDU2gTscAfk291z" name="Page-1">
    <mxGraphModel dx="2272" dy="772" grid="1" gridSize="10" guides="1" tooltips="1" connect="1" arrows="1" fold="1" page="1" pageScale="1" pageWidth="850" pageHeight="1100" math="0" shadow="0">
      <root>
        <mxCell id="0" />
        <mxCell id="1" parent="0" />
        <mxCell id="dLU-ejRniz4RKfMwqxvG-1" value="Farmer" style="rounded=0;whiteSpace=wrap;html=1;" vertex="1" parent="1">
          <mxGeometry x="-120" y="90" width="180" height="90" as="geometry" />
        </mxCell>
        <mxCell id="dLU-ejRniz4RKfMwqxvG-2" value="Data Entry&lt;br&gt;Django&lt;br&gt;MVT" style="ellipse;whiteSpace=wrap;html=1;" vertex="1" parent="1">
          <mxGeometry x="170" y="350" width="200" height="160" as="geometry" />
        </mxCell>
        <mxCell id="dLU-ejRniz4RKfMwqxvG-3" value="Database" style="rounded=1;whiteSpace=wrap;html=1;" vertex="1" parent="1">
          <mxGeometry x="530" y="90" width="190" height="90" as="geometry" />
        </mxCell>
        <mxCell id="dLU-ejRniz4RKfMwqxvG-6" value="" style="endArrow=classic;startArrow=classic;html=1;rounded=0;exitX=1;exitY=0.5;exitDx=0;exitDy=0;entryX=0.45;entryY=1.067;entryDx=0;entryDy=0;entryPerimeter=0;" edge="1" parent="1" source="dLU-ejRniz4RKfMwqxvG-2" target="dLU-ejRniz4RKfMwqxvG-3">
          <mxGeometry width="50" height="50" relative="1" as="geometry">
            <mxPoint x="360" y="230" as="sourcePoint" />
            <mxPoint x="410" y="180" as="targetPoint" />
          </mxGeometry>
        </mxCell>
        <mxCell id="dLU-ejRniz4RKfMwqxvG-7" value="" style="endArrow=classic;startArrow=classic;html=1;rounded=0;entryX=0.5;entryY=1;entryDx=0;entryDy=0;exitX=0;exitY=0.5;exitDx=0;exitDy=0;" edge="1" parent="1" source="dLU-ejRniz4RKfMwqxvG-2" target="dLU-ejRniz4RKfMwqxvG-1">
          <mxGeometry width="50" height="50" relative="1" as="geometry">
            <mxPoint x="60" y="260" as="sourcePoint" />
            <mxPoint x="110" y="210" as="targetPoint" />
          </mxGeometry>
        </mxCell>
        <mxCell id="dLU-ejRniz4RKfMwqxvG-8" value="Enters Data" style="text;html=1;align=center;verticalAlign=middle;resizable=0;points=[];autosize=1;strokeColor=none;fillColor=none;" vertex="1" parent="1">
          <mxGeometry x="40" y="240" width="90" height="30" as="geometry" />
        </mxCell>
        <mxCell id="dLU-ejRniz4RKfMwqxvG-9" value="Data Processing" style="text;html=1;align=center;verticalAlign=middle;resizable=0;points=[];autosize=1;strokeColor=none;fillColor=none;" vertex="1" parent="1">
          <mxGeometry x="390" y="255" width="110" height="30" as="geometry" />
        </mxCell>
        <mxCell id="dLU-ejRniz4RKfMwqxvG-10" value="Data returned" style="text;html=1;align=center;verticalAlign=middle;resizable=0;points=[];autosize=1;strokeColor=none;fillColor=none;" vertex="1" parent="1">
          <mxGeometry x="510" y="310" width="100" height="30" as="geometry" />
        </mxCell>
        <mxCell id="dLU-ejRniz4RKfMwqxvG-11" value="Result given based on data" style="text;html=1;align=center;verticalAlign=middle;resizable=0;points=[];autosize=1;strokeColor=none;fillColor=none;" vertex="1" parent="1">
          <mxGeometry x="-110" y="285" width="170" height="30" as="geometry" />
        </mxCell>
      </root>
    </mxGraphModel>
  </diagram>
</mxfile>
